<?xml version="1.0" standalone="no"?>
<!DOCTYPE svg PUBLIC "-//W3C//DTD SVG 20010904//EN"
 "http://www.w3.org/TR/2001/REC-SVG-20010904/DTD/svg10.dtd">
<svg version="1.0" xmlns="http://www.w3.org/2000/svg"
 width="16px" height="16px" viewBox="0 0 48.000000 48.000000"
 preserveAspectRatio="xMidYMid meet">

<g transform="translate(0.000000,48.000000) scale(0.100000,-0.100000)"
fill="#000000" stroke="none">
<path d="M180 471 c-112 -36 -174 -119 -174 -231 0 -137 96 -234 234 -234 138
0 234 97 234 234 0 95 -44 169 -128 212 -43 22 -128 32 -166 19z m198 -226 c3
-8 -74 -34 -103 -35 -20 0 11 19 45 27 l35 9 -40 27 c-22 15 -42 23 -46 19 -3
-4 -14 -37 -24 -74 -12 -44 -22 -65 -29 -61 -82 50 -126 83 -115 87 24 8 94
26 102 26 4 0 7 -4 7 -9 0 -5 -16 -12 -35 -15 -19 -4 -35 -10 -35 -15 0 -4 17
-17 39 -29 l38 -22 22 75 21 74 58 -37 c31 -20 59 -41 60 -47z"/>
</g>
</svg>
