<?xml version="1.0" encoding="utf-8"?>
<!-- Uploaded to: SVG Repo, www.svgrepo.com, Generator: SVG Repo Mixer Tools -->
<svg width="800px" height="800px" viewBox="0 0 1024 1024" class="icon"  version="1.1" xmlns="http://www.w3.org/2000/svg"><path d="M515.84 879.36c-7.68 11.52-23.04 15.36-35.84 7.68l-323.84-204.8c-11.52-7.68-15.36-23.04-7.68-35.84l300.8-451.84c7.68-11.52 60.16-23.04 60.16-23.04l236.8-62.72L768 122.88l44.8 240.64s12.8 52.48 5.12 64L515.84 879.36z" fill="#6FB0BE" /><path d="M494.08 903.68c-7.68 0-14.08-2.56-20.48-6.4l-323.84-204.8c-8.96-5.12-14.08-14.08-16.64-24.32-2.56-10.24 0-20.48 5.12-29.44l300.8-453.12c8.96-14.08 46.08-24.32 67.84-28.16L742.4 97.28c3.84-1.28 7.68 0 10.24 1.28l21.76 14.08c2.56 1.28 5.12 5.12 5.12 8.96l44.8 240.64c5.12 20.48 12.8 58.88 3.84 72.96L526.08 887.04c-5.12 8.96-14.08 14.08-24.32 16.64h-7.68z m249.6-780.8L512 184.32c-24.32 5.12-48.64 12.8-52.48 17.92L158.72 654.08c-1.28 2.56-2.56 6.4-1.28 8.96s2.56 6.4 5.12 7.68l323.84 204.8c2.56 1.28 6.4 2.56 10.24 1.28 3.84-1.28 6.4-2.56 7.68-5.12L806.4 419.84c1.28-5.12-1.28-30.72-6.4-53.76L755.2 130.56l-11.52-7.68z" fill="#231C1C" /><path d="M682.24 224m-51.2 0a51.2 51.2 0 1 0 102.4 0 51.2 51.2 0 1 0-102.4 0Z" fill="#F2E5CA" /><path d="M682.24 288c-35.84 0-64-28.16-64-64s28.16-64 64-64 64 28.16 64 64-29.44 64-64 64z m0-102.4c-21.76 0-38.4 16.64-38.4 38.4s16.64 38.4 38.4 38.4 38.4-16.64 38.4-38.4-17.92-38.4-38.4-38.4z" fill="#231C1C" /></svg>